<svg width="100" height="98" viewBox="0 0 100 98" fill="none" xmlns="http://www.w3.org/2000/svg">
<path d="M88.6307 45.9061L76.2348 39.7082L65.0786 34.1301L59.5005 22.9738L53.3025 10.578C51.8977 7.76827 47.3112 7.76827 45.9064 10.578L39.7084 22.9738L34.1303 34.1301L22.9741 39.7082L10.5782 45.9061C9.17337 46.6085 8.30566 48.0547 8.30566 49.5835C8.30566 51.1124 9.17337 52.5585 10.5782 53.261L22.9741 59.4589L34.1303 65.037L39.7084 76.1933L45.9064 88.5891C46.6088 89.994 48.055 90.8617 49.5838 90.8617C51.1126 90.8617 52.6001 89.994 53.2612 88.5891L59.4591 76.1933L65.0373 65.037L76.1935 59.4589L88.5893 53.261C89.9942 52.5585 90.8619 51.1124 90.8619 49.5835C90.8619 48.0547 89.9942 46.6085 88.5893 45.9061H88.6307ZM72.5574 52.104L69.0866 53.8394L60.1616 58.3019L58.922 58.9217L58.3022 60.1613L49.5838 77.5568L40.8654 60.1613L40.2456 58.9217L39.006 58.3019L30.081 53.8394L26.6102 52.104L21.6105 49.5835L26.6102 47.0631L30.081 45.3276L39.006 40.8651L40.2456 40.2454L40.8654 39.0058L49.5838 21.6103L58.3022 39.0058L58.922 40.2454L60.1616 40.8651L69.0866 45.3276L72.5574 47.0631L77.5571 49.5835L72.5574 52.104Z" fill="#5C5E79"/>
</svg>
