<svg width="53" height="53" viewBox="0 0 53 53" fill="none" xmlns="http://www.w3.org/2000/svg">
<path d="M11.0417 46.375C9.82708 46.375 8.78733 45.9425 7.9224 45.0776C7.05747 44.2127 6.625 43.1729 6.625 41.9583V11.0417C6.625 9.82708 7.05747 8.78733 7.9224 7.9224C8.78733 7.05747 9.82708 6.625 11.0417 6.625H28.7083V11.0417H11.0417V41.9583H41.9583V24.2917H46.375V41.9583C46.375 43.1729 45.9425 44.2127 45.0776 45.0776C44.2127 45.9425 43.1729 46.375 41.9583 46.375H11.0417ZM13.25 37.5417H39.75L31.4688 26.5L24.8438 35.3333L19.875 28.7083L13.25 37.5417ZM37.5417 19.875V15.4583H33.125V11.0417H37.5417V6.625H41.9583V11.0417H46.375V15.4583H41.9583V19.875H37.5417Z" fill="#5C5E79"/>
</svg>
