<svg width="32" height="32" viewBox="0 0 32 32" fill="none" xmlns="http://www.w3.org/2000/svg">
<path d="M28.2877 9.63281C28.1685 9.4605 28.0093 9.31965 27.8237 9.22235C27.6381 9.12504 27.4317 9.07418 27.2222 9.07411H9.50568L8.00975 5.48337C7.81361 5.01051 7.48147 4.60654 7.05545 4.32268C6.62943 4.03882 6.12871 3.88785 5.61679 3.88892H2.59253V6.48151H5.61679L11.7664 21.2398C11.8649 21.476 12.0311 21.6777 12.244 21.8195C12.4569 21.9614 12.7071 22.0371 12.9629 22.0371H23.3333C23.8738 22.0371 24.3573 21.7013 24.5479 21.1971L28.4368 10.8267C28.5103 10.6305 28.5351 10.4193 28.5092 10.2114C28.4832 10.0035 28.4072 9.80495 28.2877 9.63281ZM22.4349 19.4445H13.8275L10.5868 11.6667H25.3516L22.4349 19.4445Z" fill="white"/>
<path d="M13.6112 27.2221C14.6851 27.2221 15.5556 26.3516 15.5556 25.2777C15.5556 24.2038 14.6851 23.3333 13.6112 23.3333C12.5373 23.3333 11.6667 24.2038 11.6667 25.2777C11.6667 26.3516 12.5373 27.2221 13.6112 27.2221Z" fill="white"/>
<path d="M22.6852 27.2221C23.7591 27.2221 24.6296 26.3516 24.6296 25.2777C24.6296 24.2038 23.7591 23.3333 22.6852 23.3333C21.6113 23.3333 20.7407 24.2038 20.7407 25.2777C20.7407 26.3516 21.6113 27.2221 22.6852 27.2221Z" fill="white"/>
</svg>
