<svg width="28" height="28" viewBox="0 0 28 28" fill="none" xmlns="http://www.w3.org/2000/svg">
<path d="M19 4.5L14 6.5L10.5 4.5L7.5 5L4.5 6.5L3 10L4.5 14.5L14.5 23.5L19.5 18.5L24.5 12.5L23.5 6.5L19 4.5Z" fill="#455592" stroke="black"/>
<path d="M14 5.36064C12.7288 4.19176 11.0649 3.54302 9.338 3.54297C8.42396 3.54392 7.51914 3.72562 6.67559 4.07762C5.83205 4.42961 5.06644 4.94495 4.42283 5.59397C1.67767 8.3508 1.67883 12.6628 4.42517 15.408L12.9792 23.962C13.1775 24.3108 13.5602 24.536 14 24.536C14.1806 24.5342 14.3583 24.4901 14.5187 24.4073C14.6792 24.3244 14.818 24.205 14.924 24.0588L23.5748 15.408C26.3212 12.6616 26.3212 8.3508 23.5725 5.5893C22.9292 4.94147 22.1642 4.42718 21.3215 4.076C20.4788 3.72482 19.575 3.54367 18.662 3.54297C16.9351 3.54325 15.2713 4.19195 14 5.36064ZM21.9228 7.23897C23.7463 9.0718 23.7475 11.9348 21.9252 13.7583L14 21.6835L6.07483 13.7583C4.2525 11.9348 4.25367 9.0718 6.0725 7.24364C6.95917 6.36164 8.11883 5.8763 9.338 5.8763C10.5572 5.8763 11.7122 6.36164 12.5918 7.2413L13.1752 7.82464C13.2834 7.93307 13.412 8.0191 13.5535 8.0778C13.6951 8.13649 13.8468 8.1667 14 8.1667C14.1532 8.1667 14.3049 8.13649 14.4465 8.0778C14.588 8.0191 14.7166 7.93307 14.8248 7.82464L15.4082 7.2413C17.1722 5.4808 20.1612 5.48547 21.9228 7.23897Z" fill="#455592"/>
</svg>
