<svg width="48" height="48" viewBox="0 0 48 48" fill="none" xmlns="http://www.w3.org/2000/svg">
<path d="M23.998 3.98584C12.972 3.98784 4.00005 12.9598 3.99805 23.9878C3.99805 35.0158 12.97 43.9878 24 43.9878C35.028 43.9858 44 35.0138 44 23.9878C44 12.9598 35.028 3.98784 23.998 3.98584ZM24 39.9878C15.176 39.9878 7.99805 32.8098 7.99805 23.9878C8.00005 15.1658 15.178 7.98784 23.998 7.98584C32.822 7.98784 40 15.1658 40 23.9878C40 32.8078 32.822 39.9858 24 39.9878Z" fill="white"/>
<path d="M24.0239 15.978L16.0139 23.988L24.0239 31.996V25.988H32.0119V21.988H24.0239V15.978Z" fill="white"/>
</svg>
