<svg width="48" height="48" viewBox="0 0 48 48" fill="none" xmlns="http://www.w3.org/2000/svg">
<path d="M23.998 3.98584C12.97 3.98784 3.99805 12.9598 3.99805 23.9878C3.99805 35.0158 12.97 43.9878 24 43.9878C35.026 43.9878 43.998 35.0158 44 23.9878C44 12.9598 35.028 3.98784 23.998 3.98584ZM24 39.9878C15.176 39.9878 7.99805 32.8098 7.99805 23.9878C7.99805 15.1658 15.176 7.98784 23.998 7.98584C32.822 7.98784 40 15.1658 40 23.9878C39.998 32.8098 32.82 39.9878 24 39.9878Z" fill="white"/>
<path d="M24 21.9879H16V25.9879H24V31.9999L32.01 23.9899L24 15.9819V21.9879Z" fill="white"/>
</svg>
