<svg width="27" height="27" viewBox="0 0 27 27" fill="none" xmlns="http://www.w3.org/2000/svg">
<path d="M12.3748 20.5C11.9439 20.5 11.5305 20.6712 11.2258 20.976C10.921 21.2807 10.7498 21.694 10.7498 22.125C10.7498 22.556 10.921 22.9693 11.2258 23.274C11.5305 23.5788 11.9439 23.75 12.3748 23.75C12.8058 23.75 13.2191 23.5788 13.5239 23.274C13.8286 22.9693 13.9998 22.556 13.9998 22.125C13.9998 21.694 13.8286 21.2807 13.5239 20.976C13.2191 20.6712 12.8058 20.5 12.3748 20.5ZM19.9582 20.5C19.5272 20.5 19.1139 20.6712 18.8091 20.976C18.5044 21.2807 18.3332 21.694 18.3332 22.125C18.3332 22.556 18.5044 22.9693 18.8091 23.274C19.1139 23.5788 19.5272 23.75 19.9582 23.75C20.3891 23.75 20.8025 23.5788 21.1072 23.274C21.412 22.9693 21.5832 22.556 21.5832 22.125C21.5832 21.694 21.412 21.2807 21.1072 20.976C20.8025 20.6712 20.3891 20.5 19.9582 20.5ZM10.5548 18.0842C10.8907 18.8967 11.6815 19.4167 12.559 19.4167H19.254C20.1098 19.4167 20.8898 18.9075 21.2365 18.1167L24.7465 10.1C24.8982 9.76417 24.8657 9.37417 24.6598 9.07083C24.5607 8.92028 24.4255 8.79684 24.2666 8.71172C24.1077 8.62659 23.9301 8.58246 23.7498 8.58333H8.94067L7.41317 4.92167C7.23984 4.52083 6.84984 4.25 6.4165 4.25H3.1665V6.41667H5.69067L10.5548 18.0842Z" fill="#5C5E79"/>
</svg>
