<svg width="21" height="21" viewBox="0 0 21 21" fill="none" xmlns="http://www.w3.org/2000/svg">
<path d="M5.27 13.9195L2.53912 16.6293C2.14492 17.0204 2.14492 17.6578 2.53912 18.049L2.83642 18.344C3.22631 18.7308 3.85524 18.7308 4.24513 18.344L6.98705 15.6233L9.5687 13.0616L10.4333 12.2037L11.2979 13.0616L13.015 14.7774L16.6215 18.3459C17.0115 18.7319 17.6397 18.7314 18.0292 18.345L18.3285 18.048C18.7223 17.6572 18.7228 17.0206 18.3295 16.6293L14.7442 13.0616L13.015 11.3579L12.1504 10.4999L18.3275 4.37063C18.7217 3.97949 18.7217 3.34208 18.3275 2.95093L18.0302 2.65593C17.6403 2.26906 17.0114 2.26906 16.6215 2.65593L10.4333 8.7962L4.24513 2.65593C3.85524 2.26906 3.22631 2.26906 2.83642 2.65593L2.53912 2.95093C2.14492 3.34208 2.14492 3.97949 2.53912 4.37063L8.71627 10.4999L7.85166 11.3579L5.27 13.9195Z" fill="#5C5E79"/>
</svg>
