<svg width="31" height="31" viewBox="0 0 31 31" fill="none" xmlns="http://www.w3.org/2000/svg">
<path d="M16.4688 5.8125C15.1841 5.8125 13.9521 6.32282 13.0437 7.2312C12.1353 8.13958 11.625 9.37161 11.625 10.6562C11.625 11.9409 12.1353 13.1729 13.0437 14.0813C13.9521 14.9897 15.1841 15.5 16.4688 15.5C17.7534 15.5 18.9854 14.9897 19.8938 14.0813C20.8022 13.1729 21.3125 11.9409 21.3125 10.6562C21.3125 9.37161 20.8022 8.13958 19.8938 7.2312C18.9854 6.32282 17.7534 5.8125 16.4688 5.8125Z" fill="#5C5E79"/>
<path d="M25.1875 23.25C25.1875 20.0338 22.5912 17.4375 19.375 17.4375H13.5625C10.3463 17.4375 7.75 20.0338 7.75 23.25V25.1875H25.1875V23.25Z" fill="#5C5E79"/>
</svg>
