<svg width="31" height="31" viewBox="0 0 31 31" fill="none" xmlns="http://www.w3.org/2000/svg">
<g clip-path="url(#clip0_540_557)">
<path d="M21 8H11C8.24 8 6 10.24 6 13V20.88C6.00039 21.4973 6.18369 22.1007 6.52673 22.614C6.86978 23.1272 7.3572 23.5273 7.92746 23.7638C8.49772 24.0002 9.12525 24.0624 9.73083 23.9425C10.3364 23.8226 10.8929 23.5259 11.33 23.09L13.29 21.13C14 20.42 14.99 20.01 16 20.01C17.01 20.01 17.99 20.42 18.71 21.13L20.67 23.09C21.1071 23.5259 21.6636 23.8226 22.2692 23.9425C22.8747 24.0624 23.5023 24.0002 24.0725 23.7638C24.6428 23.5273 25.1302 23.1272 25.4733 22.614C25.8163 22.1007 25.9996 21.4973 26 20.88V13C26 10.24 23.76 8 21 8ZM11 16C9.9 16 9 15.1 9 14C9 12.9 9.9 12 11 12C12.1 12 13 12.9 13 14C13 15.1 12.1 16 11 16ZM20.5 11C21.05 11 21.5 11.45 21.5 12C21.5 12.55 21.05 13 20.5 13C19.95 13 19.5 12.55 19.5 12C19.5 11.45 19.95 11 20.5 11ZM18.5 15C17.95 15 17.5 14.55 17.5 14C17.5 13.45 17.95 13 18.5 13C19.05 13 19.5 13.45 19.5 14C19.5 14.55 19.05 15 18.5 15ZM20.5 17C19.95 17 19.5 16.55 19.5 16C19.5 15.45 19.95 15 20.5 15C21.05 15 21.5 15.45 21.5 16C21.5 16.55 21.05 17 20.5 17ZM22.5 15C21.95 15 21.5 14.55 21.5 14C21.5 13.45 21.95 13 22.5 13C23.05 13 23.5 13.45 23.5 14C23.5 14.55 23.05 15 22.5 15Z" fill="#5C5E79"/>
</g>
<defs>
<clipPath id="clip0_540_557">
<rect width="24" height="24" fill="white" transform="translate(4 4)"/>
</clipPath>
</defs>
</svg>
