<svg width="25" height="25" viewBox="0 0 25 25" fill="none" xmlns="http://www.w3.org/2000/svg">
<path d="M5.03335 19.211H6.46785L16.308 9.32737L14.8735 7.88654L5.03335 17.7701V19.211ZM3.02002 21.2332V16.936L16.308 3.61459C16.5094 3.42922 16.7317 3.28598 16.9749 3.18487C17.2182 3.08376 17.4741 3.0332 17.7425 3.0332C18.011 3.0332 18.271 3.08376 18.5227 3.18487C18.7744 3.28598 18.9925 3.43765 19.177 3.63987L20.5612 5.05543C20.7625 5.2408 20.9093 5.45987 21.0016 5.71265C21.0939 5.96543 21.14 6.2182 21.14 6.47098C21.14 6.74061 21.0939 6.9976 21.0016 7.24195C20.9093 7.48631 20.7625 7.70959 20.5612 7.91181L7.29835 21.2332H3.02002ZM15.5782 8.61959L14.8735 7.88654L16.308 9.32737L15.5782 8.61959Z" fill="#E8EAED"/>
</svg>
