<svg width="20" height="20" viewBox="0 0 20 20" fill="none" xmlns="http://www.w3.org/2000/svg">
<path d="M7.25583 16.4224L15 8.67827L11.3217 4.99994L3.5775 12.7441C3.47089 12.8509 3.39515 12.9845 3.35833 13.1308L2.5 17.4999L6.86833 16.6416C7.015 16.6049 7.14917 16.5291 7.25583 16.4224ZM17.5 6.17827C17.8125 5.86573 17.988 5.44188 17.988 4.99994C17.988 4.558 17.8125 4.13415 17.5 3.82161L16.1783 2.49994C15.8658 2.18749 15.4419 2.01196 15 2.01196C14.5581 2.01196 14.1342 2.18749 13.8217 2.49994L12.5 3.82161L16.1783 7.49994L17.5 6.17827Z" fill="#455592"/>
</svg>
