<svg width="100" height="100" viewBox="0 0 100 100" fill="none" xmlns="http://www.w3.org/2000/svg">
<path d="M82.7381 77.9843C86.1337 79.2784 87.3226 83.5006 84.8005 86.1167C76.5087 94.7181 66.3948 99.9965 52.9762 99.9965C51.1303 99.9965 49.994 98.0509 50.9008 96.4432L60.7393 78.9995C63.1217 74.7755 68.1914 72.8697 72.7664 74.4783L82.7381 77.9843Z" fill="white"/>
<path d="M47.6811 63.03C51.9144 65.4317 53.8037 70.5324 52.1564 75.1123L46.0893 91.98C44.4962 96.4093 39.9871 99.2313 35.4823 97.8665C14.9483 91.6458 0 72.5727 0 50.0052C0 49.9086 0.000275524 49.812 0.000825774 49.7155C0.038104 43.1779 7.26595 40.101 12.9523 43.3271L47.6811 63.03Z" fill="white"/>
<path d="M82.2386 25.3467C84.0257 20.7093 89.9909 19.5809 92.5981 23.812C97.2918 31.4295 100 40.4007 100 50.0052C100 56.8248 98.3646 62.3224 95.7524 67.7242C94.1834 70.9687 90.1487 72.0161 87.0097 70.2454L76.4025 64.2618C72.0809 61.824 70.2004 56.5861 71.9846 51.9562L82.2386 25.3467Z" fill="white"/>
<path d="M50 0C60.4052 0 70.0666 3.18023 78.0685 8.62029C81.8924 11.2199 82.5993 16.3772 80.3082 20.3935L64.3241 48.4149C61.8356 52.7775 56.4974 54.6174 51.8494 52.7146L11.7428 36.2959C6.86061 34.2972 4.27426 28.7733 6.88725 24.1905C15.3738 9.30622 31.3276 0 50 0Z" fill="white"/>
</svg>
